<svg width="19" height="22" xmlns="http://www.w3.org/2000/svg" xmlns:xlink="http://www.w3.org/1999/xlink" xml:space="preserve" overflow="hidden"><defs><clipPath id="clip0"><rect x="58" y="5" width="19" height="22"/></clipPath></defs><g clip-path="url(#clip0)" transform="translate(-58 -5)"><path d="M18.9942 16.0391C18.9971 16.0794 18.9986 16.121 19 16.1613 19.0172 16.9303 18.6938 17.6676 18.1477 18.2095 18.0183 18.3374 17.8861 18.4624 17.751 18.5832 16.0017 20.1484 13.7322 21.1459 11.2341 21.2796 4.78054 21.6289-0.336334 16.5077 0.0172479 10.0555 0.324835 4.44996 4.9674 0 10.6491 0 13.3068 0 15.7358 0.973069 17.6015 2.58287 17.8041 2.75823 17.9996 2.94077 18.1893 3.12906 18.7097 3.65081 19.0158 4.35797 19 5.09532 19 5.13413 18.9971 5.17293 18.9957 5.21174 18.9094 6.62319 17.7725 7.77018 16.3625 7.86935 16.0607 7.89091 15.7675 7.86504 15.4901 7.79749 14.8001 7.6322 14.208 7.21393 13.8156 6.64763 13.2119 5.77517 12.2834 5.16862 11.2269 5.06082 10.997 5.03782 10.7627 5.02776 10.5241 5.03351 7.54308 5.09819 5.10825 7.52727 5.03495 10.5083 4.95733 13.6733 7.5014 16.2633 10.6491 16.2633 10.8202 16.2633 10.9883 16.2561 11.1551 16.2403 12.2374 16.144 13.1918 15.526 13.8026 14.6277 14.1993 14.0455 14.8059 13.6187 15.513 13.4548L15.513 13.4548C15.7962 13.3887 16.0966 13.3657 16.4042 13.393 17.7926 13.5109 18.9037 14.6478 18.9928 16.0377Z" transform="matrix(1 0 0 1.03272 58 5.00319)"/></g></svg>