<svg width="9" height="10" xmlns="http://www.w3.org/2000/svg" xmlns:xlink="http://www.w3.org/1999/xlink" xml:space="preserve" overflow="hidden"><defs><clipPath id="clip0"><rect x="58" y="5" width="9" height="10"/></clipPath></defs><g clip-path="url(#clip0)" transform="translate(-58 -5)"><path d="M8.91622 7.52903C8.91757 7.54792 8.91824 7.56749 8.91892 7.58638 8.92702 7.94734 8.77521 8.29347 8.51882 8.54783 8.4581 8.60788 8.39602 8.66658 8.3326 8.72325 7.51149 9.45801 6.44613 9.92625 5.27349 9.989 2.24407 10.153-0.157881 7.74898 0.00809645 4.72023 0.152483 2.08889 2.33178 0 4.99889 0 6.24641 0 7.38667 0.456775 8.26243 1.21244 8.35756 1.29476 8.44933 1.38045 8.53839 1.46883 8.78263 1.71375 8.92634 2.0457 8.91892 2.39183 8.91892 2.41004 8.91757 2.42826 8.9169 2.44648 8.87641 3.10904 8.34272 3.64745 7.68084 3.69401 7.53915 3.70413 7.40151 3.69198 7.27129 3.66027 6.94743 3.58268 6.66945 3.38634 6.48526 3.12051 6.20188 2.71096 5.76603 2.42624 5.27012 2.37563 5.16216 2.36484 5.05219 2.36012 4.94019 2.36282 3.54085 2.39318 2.3979 3.53343 2.36349 4.93277 2.32706 6.41846 3.52128 7.63428 4.99889 7.63428 5.07918 7.63428 5.15812 7.63091 5.23638 7.62349 5.74443 7.57828 6.19244 7.28816 6.47919 6.86647 6.66541 6.59321 6.95013 6.39283 7.28209 6.31591L7.28209 6.31591C7.415 6.28487 7.55602 6.27408 7.7004 6.2869 8.35217 6.34222 8.87371 6.87591 8.91555 7.52835Z" transform="matrix(1.00909 0 0 1 58 5.00145)"/></g></svg>