<svg width="34" height="39" xmlns="http://www.w3.org/2000/svg" xmlns:xlink="http://www.w3.org/1999/xlink" xml:space="preserve" overflow="hidden"><defs><clipPath id="clip0"><rect x="58" y="5" width="34" height="39"/></clipPath></defs><g clip-path="url(#clip0)" transform="translate(-58 -5)"><path d="M33.9897 28.7016C33.9949 28.7736 33.9974 28.8482 34 28.9202 34.0309 30.2962 33.4522 31.6157 32.4748 32.5854 32.2433 32.8143 32.0067 33.0381 31.7649 33.2541 28.6347 36.0551 24.5734 37.8401 20.1032 38.0793 8.55466 38.7043-0.601861 29.5401 0.0308647 17.9941 0.581285 7.96308 8.88902 0 19.0564 0 23.8121 0 28.1589 1.74128 31.4974 4.62198 31.8601 4.93577 32.2099 5.26243 32.5494 5.59936 33.4804 6.53302 34.0283 7.79847 34 9.11794 34 9.18738 33.9949 9.25683 33.9923 9.32627 33.838 11.852 31.8035 13.9045 29.2803 14.082 28.7401 14.1206 28.2154 14.0743 27.719 13.9534 26.4845 13.6576 25.4248 12.9091 24.7226 11.8958 23.6423 10.3345 21.9808 9.24911 20.0903 9.05621 19.6788 9.01505 19.2596 8.99705 18.8326 9.00734 13.4981 9.12308 9.14109 13.4699 9.00991 18.8043 8.87102 24.468 13.4236 29.1028 19.0564 29.1028 19.3624 29.1028 19.6634 29.0899 19.9617 29.0617 21.8985 28.8893 23.6063 27.7833 24.6994 26.1758 25.4093 25.1341 26.4947 24.3702 27.7602 24.077L27.7602 24.077C28.2669 23.9587 28.8044 23.9175 29.3549 23.9664 31.8395 24.1773 33.8277 26.2118 33.9871 28.699Z" transform="matrix(1 0 0 1.02305 58 5.00566)"/></g></svg>