<?xml version="1.0" encoding="UTF-8"?>
<svg id="Layer_2" data-name="Layer 2" xmlns="http://www.w3.org/2000/svg" viewBox="0 0 31 34.75">
  <g id="Layer_1-2" data-name="Layer 1">
    <path d="M30.99,26.17c0,.07,0,.13,0,.2.03,1.26-.5,2.46-1.39,3.34-.21.21-.43.41-.65.61-2.85,2.56-6.56,4.18-10.63,4.4C7.8,35.29-.55,26.94.03,16.41.53,7.26,8.11,0,17.38,0c4.34,0,8.3,1.59,11.34,4.21.33.29.65.58.96.89.85.85,1.35,2.01,1.32,3.21,0,.06,0,.13,0,.19-.14,2.3-2,4.18-4.3,4.34-.49.03-.97,0-1.42-.12-1.13-.27-2.09-.95-2.73-1.88-.98-1.42-2.5-2.41-4.22-2.59-.38-.04-.76-.05-1.15-.05-4.87.11-8.84,4.07-8.96,8.93-.13,5.17,4.02,9.39,9.16,9.39.28,0,.55-.01.83-.04,1.77-.16,3.32-1.17,4.32-2.63.65-.95,1.64-1.65,2.79-1.91h0c.46-.11.95-.14,1.45-.1,2.27.19,4.08,2.05,4.22,4.32Z"/>
  </g>
</svg>